# xmcd
#
# Track frame offsets:
# 150
# 1603
# 17429
#
# Disc length: 439 seconds
#
#
# Revision: 2
# Processed by: cddbd v1.5.2PL0 Copyright (c) Steve Scherf et al.
# Submitted via: FreeRIP 2.945 
#
DISCID=0c01b503
DTITLE=不明 - 不明
DYEAR=1900
DGENRE=
TTITLE0=第 1 音軌
TTITLE1=第 2 音軌
TTITLE2=第 3 音軌
EXTD=
EXTT0=
EXTT1=
EXTT2=
PLAYORDER=
